<svg data-name="Group 10994" xmlns="http://www.w3.org/2000/svg" 
width="64" height="64" viewBox="0 0 26.718 34.604"> 
<defs> <clipPath id="uw7zjekpva">
<path data-name="Rectangle 17550" style="fill:#fff" d="M0 0h26.718v34.604H0z"/> 
</clipPath> </defs> <g data-name="Group 10267" style="clip-path:url(#uw7zjekpva)"> 
<path data-name="Path 4159" d="M7.952 140.065a1.227 1.227 0 0 0-.877 0 1.26 1.26 0 0 0-1.02.944l-1.841 5.915-1.975-4.849a.816.816 0 0 0-1.082-.485A1.435 1.435 0 0 0 0 143.1c0 .094.269.821.7 1.964l.136.36 1.7 3.941a.734.734 0 0 0 .76.508 1.381 1.381 0 0 0 .306-.052l1.257-.348a1.442 1.442 0 0 0 1.016-1.007l2.391-7.166a1.476 1.476 0 0 0 .079-.472.794.794 0 0 0-.393-.758" transform="translate(0 -132.201)" style="fill:#fff"/> 
<path data-name="Path 4160" d="M160.3 110c2.173-.555 3.285.223 3.283 2.365v2.54c0 2.025-1.114 3.322-3.287 3.877l-1.934.494c-2.173.555-3.251-.182-3.249-2.208v-2.54a3.835 3.835 0 0 1 3.253-4.034zm.184 6.443c.462-.118.719-.383.719-.765v-2.889c0-.481-.256-.665-.718-.547l-2.31.59a.877.877 0 0 0-.719.914v2.889c0 .382.256.515.718.4z" transform="translate(-146.608 -103.72)" style="fill:#fff"/> 
<path data-name="Path 4161" d="M323.142 20.5v9.243l.274-.071c.8-.208 1.215.073 1.215.829a1.421 1.421 0 0 1-1.2 1.485l-1.454.375c-.787.2-1.181-.082-1.18-.872V21.107a1.4 1.4 0 0 1 1.181-1.464c.787-.2 1.163.086 1.163.859" transform="translate(-303.207 -18.491)" style="fill:#fff"/> 
<path data-name="Path 4162" d="M378.852.917v2.655l1.369-.353c.787-.2 1.163.036 1.163.675 0 .655-.376 1.072-1.163 1.275l-1.369.353v4.622l.8-.208c.77-.2 1.18.082 1.18.838a1.4 1.4 0 0 1-1.164 1.477l-2.019.521c-.77.2-1.163-.086-1.163-.876V6.131c-.821.2-1.249-.014-1.249-.652 0-.622.428-1.068 1.249-1.3V1.526a1.39 1.39 0 0 1 1.164-1.46c.8-.208 1.2.078 1.2.851" transform="translate(-354.666)" style="fill:#fff"/> 
<path data-name="Path 4163" d="M14.4 314.931a.932.932 0 0 1-.712.846L6 317.741c-2.818.72-4.213-.3-4.212-3.063v-7.564a2.282 2.282 0 0 1 1.784-2.381c1.238-.316 1.851.227 1.851 1.4v7.359c0 .588.289.795.842.654l4.451-1.137v-8.228a2.144 2.144 0 0 1 1.845-2.234c1.238-.316 1.843.117 1.843 1.292z" transform="translate(-1.687 -285.628)" style="fill:#fff"/> 
<path data-name="Path 4164" d="M252.833 262.033a2.141 2.141 0 0 1-1.818 2.253c-1.185.3-1.791-.13-1.79-1.331l.01-16.3a.885.885 0 0 1 .659-.807l9.271-2.368c2.081-.531 3.107.177 3.106 2.145v5.7c0 3.271-1.847 5.352-5.534 6.293l-3.9 1zm.008-13.415v6.49l4.109-1.049a1.981 1.981 0 0 0 1.66-2.085v-4.829z" transform="translate(-235.559 -229.775)" style="fill:#fff"/> </g> </svg>